<mxfile host="Electron" agent="Mozilla/5.0 (Windows NT 10.0; Win64; x64) AppleWebKit/537.36 (KHTML, like Gecko) draw.io/27.0.9 Chrome/134.0.6998.205 Electron/35.4.0 Safari/537.36" version="27.0.9">
  <diagram name="Page-1" id="kBQFYDShJ0Yv-XcoQzLO">
    <mxGraphModel dx="868" dy="522" grid="1" gridSize="10" guides="1" tooltips="1" connect="1" arrows="1" fold="1" page="1" pageScale="1" pageWidth="850" pageHeight="1100" math="0" shadow="0">
      <root>
        <mxCell id="0" />
        <mxCell id="1" parent="0" />
        <mxCell id="HRjCenoTnwqOH7NJ0QQL-2" value="U&lt;sub&gt;C1&lt;/sub&gt;" style="verticalLabelPosition=bottom;shadow=0;dashed=0;align=center;html=1;verticalAlign=top;shape=mxgraph.electrical.abstract.amplifier;" vertex="1" parent="1">
          <mxGeometry x="205" y="50" width="80" height="40" as="geometry" />
        </mxCell>
        <mxCell id="HRjCenoTnwqOH7NJ0QQL-4" value="U&lt;sub&gt;C2&lt;/sub&gt;" style="verticalLabelPosition=bottom;shadow=0;dashed=0;align=center;html=1;verticalAlign=top;shape=mxgraph.electrical.abstract.amplifier;" vertex="1" parent="1">
          <mxGeometry x="205" y="110" width="80" height="40" as="geometry" />
        </mxCell>
        <mxCell id="HRjCenoTnwqOH7NJ0QQL-36" style="edgeStyle=orthogonalEdgeStyle;rounded=0;orthogonalLoop=1;jettySize=auto;html=1;exitX=0;exitY=0.5;exitDx=0;exitDy=0;exitPerimeter=0;entryX=0.4;entryY=0.1;entryDx=0;entryDy=0;entryPerimeter=0;endArrow=none;startFill=1;startArrow=classic;" edge="1" parent="1" source="HRjCenoTnwqOH7NJ0QQL-5" target="HRjCenoTnwqOH7NJ0QQL-32">
          <mxGeometry relative="1" as="geometry">
            <mxPoint x="165" y="449.9999999999999" as="targetPoint" />
          </mxGeometry>
        </mxCell>
        <mxCell id="HRjCenoTnwqOH7NJ0QQL-5" value="I&lt;sub&gt;L1&lt;/sub&gt;" style="verticalLabelPosition=bottom;shadow=0;dashed=0;align=center;html=1;verticalAlign=top;shape=mxgraph.electrical.abstract.amplifier;" vertex="1" parent="1">
          <mxGeometry x="205" y="170" width="80" height="40" as="geometry" />
        </mxCell>
        <mxCell id="HRjCenoTnwqOH7NJ0QQL-6" value="I&lt;sub&gt;L2&lt;/sub&gt;" style="verticalLabelPosition=bottom;shadow=0;dashed=0;align=center;html=1;verticalAlign=top;shape=mxgraph.electrical.abstract.amplifier;" vertex="1" parent="1">
          <mxGeometry x="205" y="230" width="80" height="40" as="geometry" />
        </mxCell>
        <mxCell id="HRjCenoTnwqOH7NJ0QQL-7" value="V&lt;sub&gt;S&lt;/sub&gt;" style="verticalLabelPosition=bottom;shadow=0;dashed=0;align=center;html=1;verticalAlign=top;shape=mxgraph.electrical.abstract.amplifier;" vertex="1" parent="1">
          <mxGeometry x="205" y="290" width="80" height="40" as="geometry" />
        </mxCell>
        <mxCell id="HRjCenoTnwqOH7NJ0QQL-8" value="I&lt;sub&gt;O&lt;/sub&gt;" style="verticalLabelPosition=bottom;shadow=0;dashed=0;align=center;html=1;verticalAlign=top;shape=mxgraph.electrical.abstract.amplifier;" vertex="1" parent="1">
          <mxGeometry x="205" y="350" width="80" height="40" as="geometry" />
        </mxCell>
        <mxCell id="HRjCenoTnwqOH7NJ0QQL-25" style="edgeStyle=orthogonalEdgeStyle;rounded=0;orthogonalLoop=1;jettySize=auto;html=1;exitX=1;exitY=0.5;exitDx=0;exitDy=0;entryX=0.25;entryY=0;entryDx=0;entryDy=0;" edge="1" parent="1" source="HRjCenoTnwqOH7NJ0QQL-10" target="HRjCenoTnwqOH7NJ0QQL-22">
          <mxGeometry relative="1" as="geometry">
            <mxPoint x="525" y="230" as="targetPoint" />
          </mxGeometry>
        </mxCell>
        <mxCell id="HRjCenoTnwqOH7NJ0QQL-44" value="Value linearization,&lt;div&gt;gain factor correction&lt;/div&gt;" style="edgeLabel;html=1;align=center;verticalAlign=middle;resizable=0;points=[];" vertex="1" connectable="0" parent="HRjCenoTnwqOH7NJ0QQL-25">
          <mxGeometry x="-0.3184" relative="1" as="geometry">
            <mxPoint x="16" y="-20" as="offset" />
          </mxGeometry>
        </mxCell>
        <mxCell id="HRjCenoTnwqOH7NJ0QQL-10" value="ADC&lt;br&gt;Block" style="rounded=0;whiteSpace=wrap;html=1;" vertex="1" parent="1">
          <mxGeometry x="325" y="50" width="120" height="360" as="geometry" />
        </mxCell>
        <mxCell id="HRjCenoTnwqOH7NJ0QQL-11" style="edgeStyle=orthogonalEdgeStyle;rounded=0;orthogonalLoop=1;jettySize=auto;html=1;exitX=1;exitY=0.5;exitDx=0;exitDy=0;exitPerimeter=0;entryX=-0.003;entryY=0.056;entryDx=0;entryDy=0;entryPerimeter=0;" edge="1" parent="1" source="HRjCenoTnwqOH7NJ0QQL-2" target="HRjCenoTnwqOH7NJ0QQL-10">
          <mxGeometry relative="1" as="geometry" />
        </mxCell>
        <mxCell id="HRjCenoTnwqOH7NJ0QQL-12" style="edgeStyle=orthogonalEdgeStyle;rounded=0;orthogonalLoop=1;jettySize=auto;html=1;exitX=1;exitY=0.5;exitDx=0;exitDy=0;exitPerimeter=0;entryX=0;entryY=0.222;entryDx=0;entryDy=0;entryPerimeter=0;" edge="1" parent="1" source="HRjCenoTnwqOH7NJ0QQL-4" target="HRjCenoTnwqOH7NJ0QQL-10">
          <mxGeometry relative="1" as="geometry" />
        </mxCell>
        <mxCell id="HRjCenoTnwqOH7NJ0QQL-13" style="edgeStyle=orthogonalEdgeStyle;rounded=0;orthogonalLoop=1;jettySize=auto;html=1;exitX=1;exitY=0.5;exitDx=0;exitDy=0;exitPerimeter=0;entryX=-0.003;entryY=0.389;entryDx=0;entryDy=0;entryPerimeter=0;" edge="1" parent="1" source="HRjCenoTnwqOH7NJ0QQL-5" target="HRjCenoTnwqOH7NJ0QQL-10">
          <mxGeometry relative="1" as="geometry" />
        </mxCell>
        <mxCell id="HRjCenoTnwqOH7NJ0QQL-14" style="edgeStyle=orthogonalEdgeStyle;rounded=0;orthogonalLoop=1;jettySize=auto;html=1;exitX=1;exitY=0.5;exitDx=0;exitDy=0;exitPerimeter=0;entryX=-0.006;entryY=0.557;entryDx=0;entryDy=0;entryPerimeter=0;" edge="1" parent="1" source="HRjCenoTnwqOH7NJ0QQL-6" target="HRjCenoTnwqOH7NJ0QQL-10">
          <mxGeometry relative="1" as="geometry" />
        </mxCell>
        <mxCell id="HRjCenoTnwqOH7NJ0QQL-15" style="edgeStyle=orthogonalEdgeStyle;rounded=0;orthogonalLoop=1;jettySize=auto;html=1;exitX=1;exitY=0.5;exitDx=0;exitDy=0;exitPerimeter=0;entryX=0;entryY=0.721;entryDx=0;entryDy=0;entryPerimeter=0;" edge="1" parent="1" source="HRjCenoTnwqOH7NJ0QQL-7" target="HRjCenoTnwqOH7NJ0QQL-10">
          <mxGeometry relative="1" as="geometry">
            <mxPoint x="305" y="280" as="targetPoint" />
          </mxGeometry>
        </mxCell>
        <mxCell id="HRjCenoTnwqOH7NJ0QQL-16" style="edgeStyle=orthogonalEdgeStyle;rounded=0;orthogonalLoop=1;jettySize=auto;html=1;exitX=1;exitY=0.5;exitDx=0;exitDy=0;exitPerimeter=0;entryX=0;entryY=0.888;entryDx=0;entryDy=0;entryPerimeter=0;" edge="1" parent="1" source="HRjCenoTnwqOH7NJ0QQL-8" target="HRjCenoTnwqOH7NJ0QQL-10">
          <mxGeometry relative="1" as="geometry" />
        </mxCell>
        <mxCell id="HRjCenoTnwqOH7NJ0QQL-24" style="edgeStyle=orthogonalEdgeStyle;rounded=0;orthogonalLoop=1;jettySize=auto;html=1;exitX=0.5;exitY=1;exitDx=0;exitDy=0;entryX=0.75;entryY=0;entryDx=0;entryDy=0;" edge="1" parent="1" source="HRjCenoTnwqOH7NJ0QQL-17" target="HRjCenoTnwqOH7NJ0QQL-22">
          <mxGeometry relative="1" as="geometry" />
        </mxCell>
        <mxCell id="HRjCenoTnwqOH7NJ0QQL-41" value="Sine wave&lt;div&gt;generation&lt;/div&gt;" style="edgeLabel;html=1;align=center;verticalAlign=middle;resizable=0;points=[];" vertex="1" connectable="0" parent="HRjCenoTnwqOH7NJ0QQL-24">
          <mxGeometry x="-0.1282" y="-2" relative="1" as="geometry">
            <mxPoint x="32" as="offset" />
          </mxGeometry>
        </mxCell>
        <mxCell id="HRjCenoTnwqOH7NJ0QQL-17" value="CORDIC" style="rounded=0;whiteSpace=wrap;html=1;" vertex="1" parent="1">
          <mxGeometry x="675" y="120" width="120" height="40" as="geometry" />
        </mxCell>
        <mxCell id="HRjCenoTnwqOH7NJ0QQL-19" value="IFX007T&lt;br&gt;Gate Driver" style="rounded=0;whiteSpace=wrap;html=1;" vertex="1" parent="1">
          <mxGeometry x="325" y="490" width="120" height="80" as="geometry" />
        </mxCell>
        <mxCell id="HRjCenoTnwqOH7NJ0QQL-27" style="edgeStyle=orthogonalEdgeStyle;rounded=0;orthogonalLoop=1;jettySize=auto;html=1;exitX=0;exitY=0.5;exitDx=0;exitDy=0;entryX=1;entryY=0.5;entryDx=0;entryDy=0;" edge="1" parent="1" source="HRjCenoTnwqOH7NJ0QQL-20" target="HRjCenoTnwqOH7NJ0QQL-19">
          <mxGeometry relative="1" as="geometry" />
        </mxCell>
        <mxCell id="HRjCenoTnwqOH7NJ0QQL-45" value="Input for&lt;div&gt;gate control&lt;/div&gt;" style="edgeLabel;html=1;align=center;verticalAlign=middle;resizable=0;points=[];" vertex="1" connectable="0" parent="HRjCenoTnwqOH7NJ0QQL-27">
          <mxGeometry x="0.0667" relative="1" as="geometry">
            <mxPoint y="-20" as="offset" />
          </mxGeometry>
        </mxCell>
        <mxCell id="HRjCenoTnwqOH7NJ0QQL-20" value="PWM Generator&lt;br&gt;Peripheral" style="rounded=0;whiteSpace=wrap;html=1;" vertex="1" parent="1">
          <mxGeometry x="555" y="490" width="120" height="80" as="geometry" />
        </mxCell>
        <mxCell id="HRjCenoTnwqOH7NJ0QQL-26" style="edgeStyle=orthogonalEdgeStyle;rounded=0;orthogonalLoop=1;jettySize=auto;html=1;exitX=0.5;exitY=1;exitDx=0;exitDy=0;entryX=1;entryY=0.5;entryDx=0;entryDy=0;" edge="1" parent="1" source="HRjCenoTnwqOH7NJ0QQL-22" target="HRjCenoTnwqOH7NJ0QQL-20">
          <mxGeometry relative="1" as="geometry" />
        </mxCell>
        <mxCell id="HRjCenoTnwqOH7NJ0QQL-42" value="Generating PWM&lt;br&gt;duty cycle value" style="edgeLabel;html=1;align=center;verticalAlign=middle;resizable=0;points=[];" vertex="1" connectable="0" parent="HRjCenoTnwqOH7NJ0QQL-26">
          <mxGeometry x="-0.3368" y="2" relative="1" as="geometry">
            <mxPoint x="48" as="offset" />
          </mxGeometry>
        </mxCell>
        <mxCell id="HRjCenoTnwqOH7NJ0QQL-22" value="Control Block" style="rounded=0;whiteSpace=wrap;html=1;" vertex="1" parent="1">
          <mxGeometry x="615" y="310" width="160" height="80" as="geometry" />
        </mxCell>
        <mxCell id="HRjCenoTnwqOH7NJ0QQL-40" style="edgeStyle=orthogonalEdgeStyle;rounded=0;orthogonalLoop=1;jettySize=auto;html=1;exitX=1;exitY=0.5;exitDx=0;exitDy=0;entryX=0.5;entryY=0;entryDx=0;entryDy=0;" edge="1" parent="1" source="HRjCenoTnwqOH7NJ0QQL-30" target="HRjCenoTnwqOH7NJ0QQL-17">
          <mxGeometry relative="1" as="geometry" />
        </mxCell>
        <mxCell id="HRjCenoTnwqOH7NJ0QQL-43" value="Sets amplitude&lt;div&gt;nominal requency&lt;/div&gt;&lt;div&gt;and phase&lt;/div&gt;&lt;div&gt;for the desired current output&lt;/div&gt;" style="edgeLabel;html=1;align=center;verticalAlign=middle;resizable=0;points=[];" vertex="1" connectable="0" parent="HRjCenoTnwqOH7NJ0QQL-40">
          <mxGeometry x="-0.4896" y="5" relative="1" as="geometry">
            <mxPoint x="124" y="35" as="offset" />
          </mxGeometry>
        </mxCell>
        <mxCell id="HRjCenoTnwqOH7NJ0QQL-30" value="Target Reference" style="rounded=0;whiteSpace=wrap;html=1;" vertex="1" parent="1">
          <mxGeometry x="525" y="30" width="120" height="40" as="geometry" />
        </mxCell>
        <mxCell id="HRjCenoTnwqOH7NJ0QQL-32" value="Physical System&lt;br&gt;(LCL Filter&amp;nbsp;&lt;div&gt;+ Voltage Source&lt;br&gt;+ Grid Connection)&lt;/div&gt;" style="ellipse;shape=cloud;whiteSpace=wrap;html=1;" vertex="1" parent="1">
          <mxGeometry x="55" y="470" width="200" height="120" as="geometry" />
        </mxCell>
        <mxCell id="HRjCenoTnwqOH7NJ0QQL-33" style="edgeStyle=orthogonalEdgeStyle;rounded=0;orthogonalLoop=1;jettySize=auto;html=1;exitX=0;exitY=0.5;exitDx=0;exitDy=0;entryX=0.875;entryY=0.5;entryDx=0;entryDy=0;entryPerimeter=0;" edge="1" parent="1" source="HRjCenoTnwqOH7NJ0QQL-19" target="HRjCenoTnwqOH7NJ0QQL-32">
          <mxGeometry relative="1" as="geometry" />
        </mxCell>
        <mxCell id="HRjCenoTnwqOH7NJ0QQL-47" value="Conducts&lt;div&gt;current&lt;/div&gt;" style="edgeLabel;html=1;align=center;verticalAlign=middle;resizable=0;points=[];" vertex="1" connectable="0" parent="HRjCenoTnwqOH7NJ0QQL-33">
          <mxGeometry x="0.0877" y="6" relative="1" as="geometry">
            <mxPoint x="12" y="-26" as="offset" />
          </mxGeometry>
        </mxCell>
        <mxCell id="HRjCenoTnwqOH7NJ0QQL-34" style="edgeStyle=orthogonalEdgeStyle;rounded=0;orthogonalLoop=1;jettySize=auto;html=1;exitX=0.4;exitY=0.1;exitDx=0;exitDy=0;exitPerimeter=0;entryX=0;entryY=0.5;entryDx=0;entryDy=0;entryPerimeter=0;" edge="1" parent="1" source="HRjCenoTnwqOH7NJ0QQL-32" target="HRjCenoTnwqOH7NJ0QQL-2">
          <mxGeometry relative="1" as="geometry" />
        </mxCell>
        <mxCell id="HRjCenoTnwqOH7NJ0QQL-35" style="edgeStyle=orthogonalEdgeStyle;rounded=0;orthogonalLoop=1;jettySize=auto;html=1;exitX=0;exitY=0.5;exitDx=0;exitDy=0;exitPerimeter=0;entryX=0.4;entryY=0.1;entryDx=0;entryDy=0;entryPerimeter=0;endArrow=none;startFill=1;startArrow=classic;" edge="1" parent="1" source="HRjCenoTnwqOH7NJ0QQL-4" target="HRjCenoTnwqOH7NJ0QQL-32">
          <mxGeometry relative="1" as="geometry" />
        </mxCell>
        <mxCell id="HRjCenoTnwqOH7NJ0QQL-37" style="edgeStyle=orthogonalEdgeStyle;rounded=0;orthogonalLoop=1;jettySize=auto;html=1;exitX=0;exitY=0.5;exitDx=0;exitDy=0;exitPerimeter=0;entryX=0.4;entryY=0.1;entryDx=0;entryDy=0;entryPerimeter=0;endArrow=none;startFill=1;startArrow=classic;" edge="1" parent="1" source="HRjCenoTnwqOH7NJ0QQL-6" target="HRjCenoTnwqOH7NJ0QQL-32">
          <mxGeometry relative="1" as="geometry" />
        </mxCell>
        <mxCell id="HRjCenoTnwqOH7NJ0QQL-38" style="edgeStyle=orthogonalEdgeStyle;rounded=0;orthogonalLoop=1;jettySize=auto;html=1;exitX=0;exitY=0.5;exitDx=0;exitDy=0;exitPerimeter=0;entryX=0.4;entryY=0.1;entryDx=0;entryDy=0;entryPerimeter=0;endArrow=none;startFill=1;startArrow=classic;" edge="1" parent="1" source="HRjCenoTnwqOH7NJ0QQL-7" target="HRjCenoTnwqOH7NJ0QQL-32">
          <mxGeometry relative="1" as="geometry" />
        </mxCell>
        <mxCell id="HRjCenoTnwqOH7NJ0QQL-39" style="edgeStyle=orthogonalEdgeStyle;rounded=0;orthogonalLoop=1;jettySize=auto;html=1;exitX=0;exitY=0.5;exitDx=0;exitDy=0;exitPerimeter=0;entryX=0.4;entryY=0.1;entryDx=0;entryDy=0;entryPerimeter=0;endArrow=none;startFill=1;startArrow=classic;" edge="1" parent="1" source="HRjCenoTnwqOH7NJ0QQL-8" target="HRjCenoTnwqOH7NJ0QQL-32">
          <mxGeometry relative="1" as="geometry" />
        </mxCell>
        <mxCell id="HRjCenoTnwqOH7NJ0QQL-46" value="Measures&lt;div&gt;system values&lt;/div&gt;" style="edgeLabel;html=1;align=center;verticalAlign=middle;resizable=0;points=[];" vertex="1" connectable="0" parent="HRjCenoTnwqOH7NJ0QQL-39">
          <mxGeometry x="0.4579" y="3" relative="1" as="geometry">
            <mxPoint x="42" as="offset" />
          </mxGeometry>
        </mxCell>
      </root>
    </mxGraphModel>
  </diagram>
</mxfile>
